{"asset":{"version":"2.0","generator":"Blockbench 3.7.5 glTF exporter"},"scenes":[{"nodes":[10,25,33],"name":"blockbench_export"}],"scene":0,"nodes":[{"translation":[0,-22,9],"name":"480cdfcc-e8bd-deed-76fd-6afe06378555","mesh":0},{"translation":[0,-22,9],"name":"29b26015-06f0-5ebc-d434-893a386008c2","mesh":1},{"translation":[0,-22,9],"name":"7eb7796e-66d1-af79-05fd-4ff4282b0bb4","mesh":2},{"translation":[0,-47,5],"name":"ca463d32-cf28-1504-94ea-9c696b380226","mesh":3},{"rotation":[0.31048668112487265,0.08319465546802914,0.24508355189472955,0.9146642677705744],"translation":[-1,3,-1],"name":"d605884b-0fad-cf55-f1ec-89f499944b95","mesh":4},{"rotation":[0.31048668112487265,-0.08319465546802914,-0.24508355189472955,0.9146642677705744],"translation":[1,3,-1],"name":"a5c0c81d-3100-1ca3-4bb4-022914dcd602","mesh":5},{"rotation":[0,0,0.13052619222005157,0.9914448613738104],"translation":[-2.5,2,0],"name":"60aeb4bd-d576-0c16-99e2-86ea43ae65ed","mesh":6},{"rotation":[0,0,-0.13052619222005157,0.9914448613738104],"translation":[2.5,2,0],"name":"3b19e913-ec23-4ee7-ba8f-8406c0c21c17","mesh":7},{"translation":[0,-47,5],"name":"96200311-2270-c224-878f-49139b3a5ba7","mesh":8},{"translation":[0,25,4],"name":"head0","children":[3,4,5,6,7,8]},{"rotation":[-0.17364817766693033,0,0,0.984807753012208],"translation":[0,22,-9],"name":"neck0","children":[0,1,2,9]},{"translation":[0,1,0],"name":"52f62a1e-88d6-a3f9-278b-a92fb04288f8","mesh":9},{"rotation":[0.17364817766693033,0,0,0.984807753012208],"translation":[0,22,-9],"name":"6af2a23a-f460-4016-4c05-4610e908706b","mesh":10},{"translation":[0,1,0],"name":"eebf20c2-1de6-cec6-2f0e-3ed62a57395c","mesh":11},{"translation":[4,-18,-7],"name":"97fd8852-8501-e2f8-8e83-20688ae835b0","mesh":12},{"translation":[-4,19,7],"name":"leg0","children":[14]},{"translation":[-4,-18,-7],"name":"e81f8415-cfdd-fe0a-daa9-4d9565a0a49b","mesh":13},{"translation":[4,19,7],"name":"leg3","children":[16]},{"translation":[4,-18,6],"name":"f9e7cc0e-d663-102c-db0b-51f11bad225c","mesh":14},{"translation":[-4,19,-6],"name":"leg1","children":[18]},{"translation":[-4,-18,6],"name":"ee687e5d-34cc-d0f2-5bd0-6fd27a68d316","mesh":15},{"translation":[4,19,-6],"name":"leg2","children":[20]},{"translation":[0,-25.5,-10],"name":"8d086cf2-aab8-7513-8183-03a5e4d56d60","mesh":16},{"translation":[0,-25.5,-10],"name":"3215c677-8dc9-2f28-9b0d-4f7dc6f969e1","mesh":17},{"rotation":[0.19509032201612825,0,0,0.9807852804032304],"translation":[0,26.5,10],"name":"tail0","children":[22,23]},{"translation":[0,-1,0],"name":"body0","children":[11,12,13,15,17,19,21,24]},{"rotation":[0.3826834323650898,0,0,0.9238795325112867],"translation":[0,0,-8],"name":"wheel2"},{"rotation":[0.3826834323650898,0,0,0.9238795325112867],"translation":[0,0,-8],"name":"wheel1","children":[26]},{"rotation":[0.3826834323650898,0,0,0.9238795325112867],"translation":[-0.5,-9.65685,-4],"name":"wheel0","children":[27]},{"rotation":[0.3826834323650898,0,0,0.9238795325112867],"translation":[0,0,-8],"name":"wheel5"},{"rotation":[0.3826834323650898,0,0,0.9238795325112867],"translation":[0,0,-8],"name":"wheel4","children":[29]},{"rotation":[0.3826834323650898,0,0,0.9238795325112867],"translation":[0.5,-9.65685,-4],"name":"wheel3","children":[30]},{"translation":[47,0,0],"name":"wi2","children":[31]},{"rotation":[0.21643961393810288,0,0,0.9762960071199334],"translation":[-23.5,7.65685,38],"name":"wi0","children":[28,32]}],"bufferViews":[{"buffer":0,"byteOffset":0,"byteLength":432,"target":34962,"byteStride":12},{"buffer":0,"byteOffset":432,"byteLength":432,"target":34962,"byteStride":12},{"buffer":0,"byteOffset":864,"byteLength":288,"target":34962,"byteStride":8},{"buffer":0,"byteOffset":1152,"byteLength":432,"target":34962,"byteStride":12},{"buffer":0,"byteOffset":1584,"byteLength":432,"target":34962,"byteStride":12},{"buffer":0,"byteOffset":2016,"byteLength":288,"target":34962,"byteStride":8},{"buffer":0,"byteOffset":2304,"byteLength":432,"target":34962,"byteStride":12},{"buffer":0,"byteOffset":2736,"byteLength":432,"target":34962,"byteStride":12},{"buffer":0,"byteOffset":3168,"byteLength":288,"target":34962,"byteStride":8},{"buffer":0,"byteOffset":3456,"byteLength":432,"target":34962,"byteStride":12},{"buffer":0,"byteOffset":3888,"byteLength":432,"target":34962,"byteStride":12},{"buffer":0,"byteOffset":4320,"byteLength":288,"target":34962,"byteStride":8},{"buffer":0,"byteOffset":4608,"byteLength":432,"target":34962,"byteStride":12},{"buffer":0,"byteOffset":5040,"byteLength":432,"target":34962,"byteStride":12},{"buffer":0,"byteOffset":5472,"byteLength":288,"target":34962,"byteStride":8},{"buffer":0,"byteOffset":5760,"byteLength":432,"target":34962,"byteStride":12},{"buffer":0,"byteOffset":6192,"byteLength":432,"target":34962,"byteStride":12},{"buffer":0,"byteOffset":6624,"byteLength":288,"target":34962,"byteStride":8},{"buffer":0,"byteOffset":6912,"byteLength":432,"target":34962,"byteStride":12},{"buffer":0,"byteOffset":7344,"byteLength":432,"target":34962,"byteStride":12},{"buffer":0,"byteOffset":7776,"byteLength":288,"target":34962,"byteStride":8},{"buffer":0,"byteOffset":8064,"byteLength":432,"target":34962,"byteStride":12},{"buffer":0,"byteOffset":8496,"byteLength":432,"target":34962,"byteStride":12},{"buffer":0,"byteOffset":8928,"byteLength":288,"target":34962,"byteStride":8},{"buffer":0,"byteOffset":9216,"byteLength":432,"target":34962,"byteStride":12},{"buffer":0,"byteOffset":9648,"byteLength":432,"target":34962,"byteStride":12},{"buffer":0,"byteOffset":10080,"byteLength":288,"target":34962,"byteStride":8},{"buffer":0,"byteOffset":10368,"byteLength":432,"target":34962,"byteStride":12},{"buffer":0,"byteOffset":10800,"byteLength":432,"target":34962,"byteStride":12},{"buffer":0,"byteOffset":11232,"byteLength":288,"target":34962,"byteStride":8},{"buffer":0,"byteOffset":11520,"byteLength":432,"target":34962,"byteStride":12},{"buffer":0,"byteOffset":11952,"byteLength":432,"target":34962,"byteStride":12},{"buffer":0,"byteOffset":12384,"byteLength":288,"target":34962,"byteStride":8},{"buffer":0,"byteOffset":12672,"byteLength":432,"target":34962,"byteStride":12},{"buffer":0,"byteOffset":13104,"byteLength":432,"target":34962,"byteStride":12},{"buffer":0,"byteOffset":13536,"byteLength":288,"target":34962,"byteStride":8},{"buffer":0,"byteOffset":13824,"byteLength":432,"target":34962,"byteStride":12},{"buffer":0,"byteOffset":14256,"byteLength":432,"target":34962,"byteStride":12},{"buffer":0,"byteOffset":14688,"byteLength":288,"target":34962,"byteStride":8},{"buffer":0,"byteOffset":14976,"byteLength":432,"target":34962,"byteStride":12},{"buffer":0,"byteOffset":15408,"byteLength":432,"target":34962,"byteStride":12},{"buffer":0,"byteOffset":15840,"byteLength":288,"target":34962,"byteStride":8},{"buffer":0,"byteOffset":16128,"byteLength":432,"target":34962,"byteStride":12},{"buffer":0,"byteOffset":16560,"byteLength":432,"target":34962,"byteStride":12},{"buffer":0,"byteOffset":16992,"byteLength":288,"target":34962,"byteStride":8},{"buffer":0,"byteOffset":17280,"byteLength":432,"target":34962,"byteStride":12},{"buffer":0,"byteOffset":17712,"byteLength":432,"target":34962,"byteStride":12},{"buffer":0,"byteOffset":18144,"byteLength":288,"target":34962,"byteStride":8},{"buffer":0,"byteOffset":18432,"byteLength":432,"target":34962,"byteStride":12},{"buffer":0,"byteOffset":18864,"byteLength":432,"target":34962,"byteStride":12},{"buffer":0,"byteOffset":19296,"byteLength":288,"target":34962,"byteStride":8},{"buffer":0,"byteOffset":19584,"byteLength":432,"target":34962,"byteStride":12},{"buffer":0,"byteOffset":20016,"byteLength":432,"target":34962,"byteStride":12},{"buffer":0,"byteOffset":20448,"byteLength":288,"target":34962,"byteStride":8}],"buffers":[{"byteLength":20736,"uri":"data:application/octet-stream;base64,"}],"accessors":[{"bufferView":0,"componentType":5126,"count":36,"max":[2,34,-4],"min":[-2,22,-9],"type":"VEC3"},{"bufferView":1,"componentType":5126,"count":36,"max":[1,1,1],"min":[-1,-1,-1],"type":"VEC3"},{"bufferView":2,"componentType":5126,"count":36,"max":[0.5467529296875,0.8280029296875],"min":[0.4063720703125,0.6954345703125],"type":"VEC2"},{"bufferView":3,"componentType":5126,"count":36,"max":[1,49,-3],"min":[-1,22,-5],"type":"VEC3"},{"bufferView":4,"componentType":5126,"count":36,"max":[1,1,1],"min":[-1,-1,-1],"type":"VEC3"},{"bufferView":5,"componentType":5126,"count":36,"max":[0.4373779296875,0.6092529296875],"min":[0.3751220703125,0.3829345703125],"type":"VEC2"},{"bufferView":6,"componentType":5126,"count":36,"max":[1.5,45,-4.5],"min":[-1.5,34,-8.5],"type":"VEC3"},{"bufferView":7,"componentType":5126,"count":36,"max":[1,1,1],"min":[-1,-1,-1],"type":"VEC3"},{"bufferView":8,"componentType":5126,"count":36,"max":[0.5623779296875,0.9998779296875],"min":[0.4532470703125,0.8829345703125],"type":"VEC2"},{"bufferView":9,"componentType":5126,"count":36,"max":[2.5,50,-4],"min":[-2.5,45,-10],"type":"VEC3"},{"bufferView":10,"componentType":5126,"count":36,"max":[1,1,1],"min":[-1,-1,-1],"type":"VEC3"},{"bufferView":11,"componentType":5126,"count":36,"max":[0.6092529296875,0.5623779296875],"min":[0.4376220703125,0.4766845703125],"type":"VEC2"},{"bufferView":12,"componentType":5126,"count":36,"max":[-0.4000000059604645,2.5999999046325684,1.600000023841858],"min":[-1.600000023841858,0.4000000059604645,0.4000000059604645],"type":"VEC3"},{"bufferView":13,"componentType":5126,"count":36,"max":[1,1,1],"min":[-1,-1,-1],"type":"VEC3"},{"bufferView":14,"componentType":5126,"count":36,"max":[0.3123779296875,0.9686279296875],"min":[0.2501220703125,0.9298095703125],"type":"VEC2"},{"bufferView":15,"componentType":5126,"count":36,"max":[1.600000023841858,2.5999999046325684,1.600000023841858],"min":[0.4000000059604645,0.4000000059604645,0.4000000059604645],"type":"VEC3"},{"bufferView":16,"componentType":5126,"count":36,"max":[1,1,1],"min":[-1,-1,-1],"type":"VEC3"},{"bufferView":17,"componentType":5126,"count":36,"max":[0.3123779296875,0.9686279296875],"min":[0.2501220703125,0.9298095703125],"type":"VEC2"},{"bufferView":18,"componentType":5126,"count":36,"max":[0,0,0],"min":[-4,-3,-1],"type":"VEC3"},{"bufferView":19,"componentType":5126,"count":36,"max":[1,1,1],"min":[-1,-1,-1],"type":"VEC3"},{"bufferView":20,"componentType":5126,"count":36,"max":[0.3280029296875,0.9998779296875],"min":[0.2501220703125,0.9688720703125],"type":"VEC2"},{"bufferView":21,"componentType":5126,"count":36,"max":[4,0,0],"min":[0,-3,-1],"type":"VEC3"},{"bufferView":22,"componentType":5126,"count":36,"max":[1,1,1],"min":[-1,-1,-1],"type":"VEC3"},{"bufferView":23,"componentType":5126,"count":36,"max":[0.3280029296875,0.9998779296875],"min":[0.2501220703125,0.9688720703125],"type":"VEC2"},{"bufferView":24,"componentType":5126,"count":36,"max":[1.5,49,-10],"min":[-1.5,45,-13],"type":"VEC3"},{"bufferView":25,"componentType":5126,"count":36,"max":[1,1,1],"min":[-1,-1,-1],"type":"VEC3"},{"bufferView":26,"componentType":5126,"count":36,"max":[0.3201904296875,0.8280029296875],"min":[0.2266845703125,0.7735595703125],"type":"VEC2"},{"bufferView":27,"componentType":5126,"count":36,"max":[5.5,26,1],"min":[-5.5,14,-9],"type":"VEC3"},{"bufferView":28,"componentType":5126,"count":36,"max":[1,1,1],"min":[-1,-1,-1],"type":"VEC3"},{"bufferView":29,"componentType":5126,"count":36,"max":[0.3280029296875,0.9998779296875],"min":[0.0001220703125,0.8282470703125],"type":"VEC2"},{"bufferView":30,"componentType":5126,"count":36,"max":[3.5,8,7],"min":[-3.5,0,-2],"type":"VEC3"},{"bufferView":31,"componentType":5126,"count":36,"max":[1,1,1],"min":[-1,-1,-1],"type":"VEC3"},{"bufferView":32,"componentType":5126,"count":36,"max":[0.4764404296875,0.7420654296875],"min":[0.2266845703125,0.6094970703125],"type":"VEC2"},{"bufferView":33,"componentType":5126,"count":36,"max":[5,25.5,10],"min":[-5,14.5,1],"type":"VEC3"},{"bufferView":34,"componentType":5126,"count":36,"max":[1,1,1],"min":[-1,-1,-1],"type":"VEC3"},{"bufferView":35,"componentType":5126,"count":36,"max":[0.2967529296875,0.8280029296875],"min":[0.0001220703125,0.6719970703125],"type":"VEC2"},{"bufferView":36,"componentType":5126,"count":36,"max":[-2,18,9],"min":[-6,0,5],"type":"VEC3"},{"bufferView":37,"componentType":5126,"count":36,"max":[1,1,1],"min":[-1,-1,-1],"type":"VEC3"},{"bufferView":38,"componentType":5126,"count":36,"max":[0.1248779296875,0.6717529296875],"min":[0.0001220703125,0.5001220703125],"type":"VEC2"},{"bufferView":39,"componentType":5126,"count":36,"max":[6,18,9],"min":[2,0,5],"type":"VEC3"},{"bufferView":40,"componentType":5126,"count":36,"max":[1,1,1],"min":[-1,-1,-1],"type":"VEC3"},{"bufferView":41,"componentType":5126,"count":36,"max":[0.1248779296875,0.6717529296875],"min":[0.0001220703125,0.5001220703125],"type":"VEC2"},{"bufferView":42,"componentType":5126,"count":36,"max":[-2,18,-4],"min":[-6,0,-8],"type":"VEC3"},{"bufferView":43,"componentType":5126,"count":36,"max":[1,1,1],"min":[-1,-1,-1],"type":"VEC3"},{"bufferView":44,"componentType":5126,"count":36,"max":[0.1248779296875,0.6717529296875],"min":[0.0001220703125,0.5001220703125],"type":"VEC2"},{"bufferView":45,"componentType":5126,"count":36,"max":[6,18,-4],"min":[2,0,-8],"type":"VEC3"},{"bufferView":46,"componentType":5126,"count":36,"max":[1,1,1],"min":[-1,-1,-1],"type":"VEC3"},{"bufferView":47,"componentType":5126,"count":36,"max":[0.1248779296875,0.6717529296875],"min":[0.0001220703125,0.5001220703125],"type":"VEC2"},{"bufferView":48,"componentType":5126,"count":36,"max":[0.5,25.5,14],"min":[-0.5,24.5,10],"type":"VEC3"},{"bufferView":49,"componentType":5126,"count":36,"max":[1,1,1],"min":[-1,-1,-1],"type":"VEC3"},{"bufferView":50,"componentType":5126,"count":36,"max":[0.0780029296875,0.9998779296875],"min":[0.0001220703125,0.9610595703125],"type":"VEC2"},{"bufferView":51,"componentType":5126,"count":36,"max":[1,26,17],"min":[-1,24,13],"type":"VEC3"},{"bufferView":52,"componentType":5126,"count":36,"max":[1,1,1],"min":[-1,-1,-1],"type":"VEC3"},{"bufferView":53,"componentType":5126,"count":36,"max":[0.3826904296875,0.8045654296875],"min":[0.2891845703125,0.7579345703125],"type":"VEC2"}],"materials":[{"pbrMetallicRoughness":{"metallicFactor":0,"roughnessFactor":1,"baseColorTexture":{"index":0}},"alphaMode":"MASK","alphaCutoff":0.05,"doubleSided":true,"name":"giraffe.png"}],"textures":[{"sampler":0,"source":0,"name":"giraffe.png"}],"samplers":[{"magFilter":9728,"minFilter":9728,"wrapS":33071,"wrapT":33071}],"images":[{"mimeType":"image/png","uri":"data:image/png;base64,"}],"meshes":[{"primitives":[{"mode":4,"attributes":{"POSITION":0,"NORMAL":1,"TEXCOORD_0":2},"material":0}]},{"primitives":[{"mode":4,"attributes":{"POSITION":3,"NORMAL":4,"TEXCOORD_0":5},"material":0}]},{"primitives":[{"mode":4,"attributes":{"POSITION":6,"NORMAL":7,"TEXCOORD_0":8},"material":0}]},{"primitives":[{"mode":4,"attributes":{"POSITION":9,"NORMAL":10,"TEXCOORD_0":11},"material":0}]},{"primitives":[{"mode":4,"attributes":{"POSITION":12,"NORMAL":13,"TEXCOORD_0":14},"material":0}]},{"primitives":[{"mode":4,"attributes":{"POSITION":15,"NORMAL":16,"TEXCOORD_0":17},"material":0}]},{"primitives":[{"mode":4,"attributes":{"POSITION":18,"NORMAL":19,"TEXCOORD_0":20},"material":0}]},{"primitives":[{"mode":4,"attributes":{"POSITION":21,"NORMAL":22,"TEXCOORD_0":23},"material":0}]},{"primitives":[{"mode":4,"attributes":{"POSITION":24,"NORMAL":25,"TEXCOORD_0":26},"material":0}]},{"primitives":[{"mode":4,"attributes":{"POSITION":27,"NORMAL":28,"TEXCOORD_0":29},"material":0}]},{"primitives":[{"mode":4,"attributes":{"POSITION":30,"NORMAL":31,"TEXCOORD_0":32},"material":0}]},{"primitives":[{"mode":4,"attributes":{"POSITION":33,"NORMAL":34,"TEXCOORD_0":35},"material":0}]},{"primitives":[{"mode":4,"attributes":{"POSITION":36,"NORMAL":37,"TEXCOORD_0":38},"material":0}]},{"primitives":[{"mode":4,"attributes":{"POSITION":39,"NORMAL":40,"TEXCOORD_0":41},"material":0}]},{"primitives":[{"mode":4,"attributes":{"POSITION":42,"NORMAL":43,"TEXCOORD_0":44},"material":0}]},{"primitives":[{"mode":4,"attributes":{"POSITION":45,"NORMAL":46,"TEXCOORD_0":47},"material":0}]},{"primitives":[{"mode":4,"attributes":{"POSITION":48,"NORMAL":49,"TEXCOORD_0":50},"material":0}]},{"primitives":[{"mode":4,"attributes":{"POSITION":51,"NORMAL":52,"TEXCOORD_0":53},"material":0}]}]}